<svg width="64" height="64" viewBox="0 0 64 64" fill="none" xmlns="http://www.w3.org/2000/svg">
<circle cx="32" cy="32" r="31" fill="#3E424B" fill-opacity="0.7" stroke="#5D5F6C" stroke-width="2"/>
<g clip-path="url(#clip0_1_19)">
<path d="M40.96 40.3199C42.7273 40.3199 44.16 38.8872 44.16 37.1199C44.16 35.3526 42.7273 33.9199 40.96 33.9199C39.1927 33.9199 37.76 35.3526 37.76 37.1199C37.76 38.8872 39.1927 40.3199 40.96 40.3199Z" stroke="white" stroke-width="1.5" stroke-miterlimit="10"/>
<path d="M23.04 40.3199C24.8073 40.3199 26.24 38.8872 26.24 37.1199C26.24 35.3526 24.8073 33.9199 23.04 33.9199C21.2727 33.9199 19.84 35.3526 19.84 37.1199C19.84 38.8872 21.2727 40.3199 23.04 40.3199Z" stroke="white" stroke-width="1.5" stroke-miterlimit="10"/>
<path d="M44.16 37.1199H46.08C46.7578 37.1199 47.36 36.5177 47.36 35.8399V31.9999C47.36 30.7775 43.52 29.4399 40.32 28.7999C39.2448 28.5849 36.48 24.9599 36.48 24.9599C35.84 24.3199 35.2 23.6799 33.92 23.6799H25.0445C22.9888 23.6799 22.4781 28.7999 19.84 28.7999C19.1296 28.7999 18.56 28.7999 18.56 28.7999C17.4842 28.7999 16.64 29.2998 16.64 30.7199V36.0371C16.64 36.7148 17.2423 37.1199 17.92 37.1199H19.84M26.24 37.1199H37.76" stroke="white" stroke-width="1.5" stroke-miterlimit="10"/>
<path d="M19.2001 28.8H40.3201" stroke="white" stroke-width="1.5" stroke-miterlimit="10" stroke-linecap="round" stroke-linejoin="round"/>
<path d="M30.08 23.6799V28.7999" stroke="white" stroke-width="1.5" stroke-miterlimit="10"/>
</g>
<defs>
<clipPath id="clip0_1_19">
<rect width="32" height="32" fill="white" transform="translate(16 16)"/>
</clipPath>
</defs>
</svg>
