<svg width="95" height="22" viewBox="0 0 95 22" fill="none" xmlns="http://www.w3.org/2000/svg">
<path d="M92.8877 4.22616C93.7048 4.36222 94.4776 3.81006 94.6137 2.99288C94.7497 2.1757 94.1976 1.40295 93.3804 1.2669L92.8877 4.22616ZM0.589687 14.7086C0.307601 15.4875 0.710365 16.3476 1.48929 16.6297L14.1825 21.2265C14.9615 21.5086 15.8216 21.1059 16.1037 20.3269C16.3858 19.548 15.983 18.6879 15.2041 18.4058L3.92117 14.3197L8.00727 3.03683C8.28936 2.2579 7.88659 1.39779 7.10767 1.1157C6.32875 0.833616 5.46863 1.23638 5.18655 2.0153L0.589687 14.7086ZM93.3804 1.2669C83.4312 -0.389597 66.6053 -0.119829 49.2639 1.97705C31.9186 4.07438 13.8216 8.02738 1.36394 13.8609L2.63616 16.5778C14.6673 10.944 32.3954 7.03858 49.624 4.95535C66.8564 2.87166 83.3531 2.63868 92.8877 4.22616L93.3804 1.2669Z" fill="#EB344B"/>
</svg>
