<svg width="102" height="79" viewBox="0 0 102 79" fill="none" xmlns="http://www.w3.org/2000/svg">
<path d="M4.60658 28.3005C21.4382 19.1132 63.5235 11.217 97.2117 53.1311" stroke="#6CDEBB" stroke-width="3" stroke-linejoin="round"/>
<path d="M6.47539 20.2282C24.6138 14.0065 67.4277 13.3103 93.5765 60.299" stroke="#6CDEBB" stroke-width="3" stroke-linejoin="round"/>
<path d="M97.0533 53.516C80.2217 62.7034 38.1364 70.5995 4.4482 28.6854" stroke="#6CDEBB" stroke-width="3" stroke-linejoin="round"/>
<path d="M96.2871 57.6097C78.7366 65.3357 36.1331 69.6323 6.1229 25.0108" stroke="#6CDEBB" stroke-width="3" stroke-linejoin="round"/>
<path d="M49.2718 22.6915C36.2846 25.7898 16.3956 36.2799 40.7375 53.4546C71.165 74.9228 77.8225 36.6306 68.5749 30.592C61.1768 25.7611 51.8514 22.9961 48.1134 22.2174" stroke="#6CDEBB" stroke-width="3" stroke-linejoin="round"/>
<path d="M27.1207 31.6555L54.9908 24.1314L30.1734 37.4123L60.6938 27.8178L31.2778 44.6254L68.8891 29.8198L34.3484 48.1358L70.6256 35.4886L39.7533 50.348L70.7999 42.7717L41.2617 55.4727L68.4297 48.5627L53.0897 58.5108" stroke="#6CDEBB" stroke-width="3" stroke-linejoin="round"/>
</svg>
