<svg width="53" height="53" viewBox="0 0 53 53" fill="none" xmlns="http://www.w3.org/2000/svg">
<path d="M18.4923 5.7113L29.3944 43.2099L20.4389 5.25204L35.2942 46.4415L23.4461 7.11116" stroke="#EB344B" stroke-width="4" stroke-linecap="round" stroke-linejoin="round"/>
<path d="M33.5469 2.67334L35.9559 10.3955L34.103 2.54212L37.5601 10.9736L34.917 2.88152" stroke="#EB344B" stroke-width="2" stroke-linecap="round" stroke-linejoin="round"/>
<path d="M7.95703 11.793L10.3661 19.5151L8.51319 11.6618L11.9703 20.0932L9.32716 12.0012" stroke="#EB344B" stroke-width="2" stroke-linecap="round" stroke-linejoin="round"/>
<path d="M17.0767 37.3828L19.4857 45.1049L17.6328 37.2516L21.0899 45.6831L18.4468 37.591" stroke="#EB344B" stroke-width="2" stroke-linecap="round" stroke-linejoin="round"/>
<path d="M40.7197 28.7222L43.1288 36.4443L41.2759 28.591L44.733 37.0224L42.0899 28.9303" stroke="#EB344B" stroke-width="2" stroke-linecap="round" stroke-linejoin="round"/>
<path d="M45.5705 14.2207L8.89404 27.6311L46.1602 16.1318L6.06836 33.7356L44.5085 19.2578" stroke="#EB344B" stroke-width="4" stroke-linecap="round" stroke-linejoin="round"/>
<path d="M39.191 4.25269L32.0244 6.8731L39.3063 4.62612L31.4722 8.06594L38.9835 5.23694" stroke="#EB344B" stroke-width="2" stroke-linecap="round" stroke-linejoin="round"/>
<path d="M13.6014 13.3726L6.43478 15.993L13.7167 13.746L5.88263 17.1858L13.3939 14.3568" stroke="#EB344B" stroke-width="2" stroke-linecap="round" stroke-linejoin="round"/>
<path d="M22.7213 38.9622L15.5546 41.5826L22.8365 39.3356L15.0025 42.7754L22.5138 39.9464" stroke="#EB344B" stroke-width="2" stroke-linecap="round" stroke-linejoin="round"/>
<path d="M46.3643 30.3016L39.1977 32.922L46.4795 30.6751L38.6455 34.1149L46.1568 31.2859" stroke="#EB344B" stroke-width="2" stroke-linecap="round" stroke-linejoin="round"/>
</svg>
