<svg width="87" height="73" viewBox="0 0 87 73" fill="none" xmlns="http://www.w3.org/2000/svg">
<path d="M13.9698 7.82436C-5.24262 22.3249 10.6659 52.5322 21.0217 65.8232C54.0384 72.9538 86.0239 62.032 78.5405 35.0084C72.8725 14.5406 50.2219 23.8852 43.6804 28.6387C41.782 15.6587 33.1822 -6.6762 13.9698 7.82436Z" stroke="#EB344B" stroke-width="5" stroke-linejoin="round"/>
<path d="M26.0164 2L6.09836 28.597L32.6557 6.43284L3 45.3433L41.5082 4.46269L9.19672 48.2985L41.5082 15.791L11.8525 56.6716L46.8197 20.2239L14.0656 64.5522L50.3607 25.6418L21.1475 67.0149L60.0984 22.6866L30 68L62.7541 30.0746L42.8361 67.0149L72.4918 25.6418L54.3443 65.5373L76.0328 32.5373L64.082 65.5373L84 37.4627" stroke="#EB344B" stroke-width="5" stroke-linejoin="round"/>
</svg>
