<svg width="29" height="28" viewBox="0 0 29 28" fill="none" xmlns="http://www.w3.org/2000/svg">
<rect x="0.666748" width="28" height="28" rx="8" fill="#3C4652"/>
<mask id="path-3-inside-1_1_150" fill="white">
<path d="M15.8598 11.2725V9.36H16.8798C17.2554 9.36 17.5598 9.05555 17.5598 8.68C17.5598 8.30445 17.2554 8 16.8798 8H13.4798C13.1043 8 12.7998 8.30445 12.7998 8.68C12.7998 9.05555 13.1043 9.36 13.4798 9.36H14.4998V11.2725"/>
</mask>
<path d="M14.4998 11.7725H15.8598V10.7725H14.4998V11.7725ZM15.8598 9.36V8.36C15.3075 8.36 14.8598 8.80772 14.8598 9.36H15.8598ZM14.4998 9.36H15.4998C15.4998 8.80772 15.0521 8.36 14.4998 8.36V9.36ZM16.8598 11.2725V9.36H14.8598V11.2725H16.8598ZM15.8598 10.36H16.8798V8.36H15.8598V10.36ZM16.8798 7H13.4798V9H16.8798V7ZM13.4798 10.36H14.4998V8.36H13.4798V10.36ZM13.4998 9.36V11.2725H15.4998V9.36H13.4998ZM11.7998 8.68C11.7998 9.60784 12.552 10.36 13.4798 10.36V8.36C13.6565 8.36 13.7998 8.50327 13.7998 8.68H11.7998ZM13.4798 7C12.552 7 11.7998 7.75216 11.7998 8.68H13.7998C13.7998 8.85673 13.6565 9 13.4798 9V7ZM18.5598 8.68C18.5598 7.75216 17.8076 7 16.8798 7V9C16.7031 9 16.5598 8.85673 16.5598 8.68H18.5598ZM16.8798 10.36C17.8076 10.36 18.5598 9.60784 18.5598 8.68H16.5598C16.5598 8.50327 16.7031 8.36 16.8798 8.36V10.36Z" fill="#7A8695" mask="url(#path-3-inside-1_1_150)"/>
<mask id="path-5-inside-2_1_150" fill="white">
<path d="M8.72 15.14H7.36V13.78C7.36 13.4045 7.05555 13.1 6.68 13.1C6.30445 13.1 6 13.4045 6 13.78V17.86C6 18.2356 6.30445 18.54 6.68 18.54C7.05555 18.54 7.36 18.2356 7.36 17.86V16.5H8.72"/>
</mask>
<path d="M7.36 15.14H6.36C6.36 15.6923 6.80772 16.14 7.36 16.14V15.14ZM7.36 16.5V15.5C6.80772 15.5 6.36 15.9477 6.36 16.5H7.36ZM8.72 14.14H7.36V16.14H8.72V14.14ZM8.36 15.14V13.78H6.36V15.14H8.36ZM5 13.78V17.86H7V13.78H5ZM8.36 17.86V16.5H6.36V17.86H8.36ZM7.36 17.5H8.72V15.5H7.36V17.5ZM6.68 19.54C7.60784 19.54 8.36 18.7878 8.36 17.86H6.36C6.36 17.6833 6.50327 17.54 6.68 17.54V19.54ZM5 17.86C5 18.7878 5.75216 19.54 6.68 19.54V17.54C6.85673 17.54 7 17.6833 7 17.86H5ZM6.68 12.1C5.75216 12.1 5 12.8522 5 13.78H7C7 13.9567 6.85673 14.1 6.68 14.1V12.1ZM8.36 13.78C8.36 12.8522 7.60784 12.1 6.68 12.1V14.1C6.50327 14.1 6.36 13.9567 6.36 13.78H8.36Z" fill="#7A8695" mask="url(#path-5-inside-2_1_150)"/>
<path d="M20.96 14.96C21.2361 14.96 21.46 14.7361 21.46 14.46V13.4398C21.46 13.3405 21.5405 13.26 21.6398 13.26C21.7391 13.26 21.8196 13.3405 21.8196 13.4398V17.52C21.8196 17.6194 21.739 17.7 21.6396 17.7C21.5402 17.7 21.4596 17.6194 21.4596 17.52V16.5C21.4596 16.2239 21.2358 16 20.9596 16H19.9396C19.6635 16 19.4396 16.2239 19.4396 16.5V17.4098C19.4396 17.4472 19.4253 17.4795 19.4033 17.5019L19.4026 17.5026L16.9052 20.0463C16.8829 20.069 16.8545 20.08 16.8273 20.08H12.4566C12.4322 20.08 12.4069 20.0712 12.3859 20.0531L10.7985 18.2134C10.7036 18.1033 10.5654 18.04 10.42 18.04H9.39997C9.39031 18.04 9.34092 18.0305 9.2851 17.9751C9.22973 17.9201 9.21997 17.8715 9.21997 17.86V13.78C9.21997 13.7726 9.2287 13.7234 9.28602 13.6661C9.34335 13.6087 9.39259 13.6 9.39997 13.6H10.42C10.5653 13.6 10.7035 13.5367 10.7985 13.4267L12.3858 11.5872C12.4068 11.569 12.4323 11.56 12.4566 11.56H19.3249C19.3794 11.56 19.44 11.6082 19.44 11.6866V14.46C19.44 14.7361 19.6638 14.96 19.94 14.96H20.96Z" stroke="#7A8695" stroke-miterlimit="10" stroke-linecap="round" stroke-linejoin="round"/>
</svg>
