<svg width="28" height="28" viewBox="0 0 28 28" fill="none" xmlns="http://www.w3.org/2000/svg">
<rect width="28" height="28" rx="8" fill="#3C4652"/>
<g clip-path="url(#clip0_1_145)">
<path d="M15.8669 6.31999C15.7462 6.31967 15.6431 6.32095 15.604 6.32351H12.884C12.7307 6.34207 12.0759 6.31551 11.9575 6.32351C11.6488 6.35487 11.4356 6.38431 11.1409 6.49631C10.9464 6.57023 10.8825 6.80607 11.0147 6.85631C11.1623 6.91167 10.8566 7.12639 10.3925 7.09631C10.2086 7.08415 9.95222 7.06879 9.8441 7.14271C9.56904 7.33055 9.65472 7.28959 9.39836 7.53279C9.29636 7.62879 9.27052 7.83679 9.41808 7.90143C9.55884 7.96319 9.11922 8.53759 8.88564 8.51679C8.65444 8.49663 8.53306 8.50879 8.44262 8.62975C8.21822 8.93023 8.19476 9.03679 8.00912 9.38943C7.93602 9.52959 7.94282 9.77983 8.05434 9.83327C8.16586 9.88639 7.94996 10.4861 7.79322 10.4861C7.6358 10.4861 7.51102 10.4941 7.45594 10.6496C7.31518 11.0454 7.28934 11.1958 7.19822 11.6134C7.16354 11.7805 7.22746 11.9501 7.36414 12.024C7.5015 12.0979 7.34816 12.9507 7.21148 12.953C7.07412 12.9552 6.98436 13.0566 6.96906 13.2266C6.94118 13.545 6.95376 13.5446 6.95376 13.8707C6.95444 13.9878 6.95648 14.1043 6.95988 14.2198C6.96532 14.3898 7.12648 14.5734 7.27744 14.641C7.48314 14.7334 7.41276 15.4141 7.31518 15.4166C7.09282 15.423 7.06562 15.6326 7.09146 15.8035C7.15606 16.231 7.1615 16.311 7.27914 16.72C7.31484 16.8426 7.42908 16.9542 7.54672 16.9914C7.66504 17.0282 8.09004 17.8445 7.9486 17.8509C7.76126 17.8595 7.78064 18.1114 7.86632 18.2941C8.03972 18.6611 7.95846 18.5491 8.16586 18.8762C8.20836 18.9453 8.40012 19.0547 8.45996 19.0672C8.5776 19.0915 9.19572 19.6637 9.02776 19.673C8.8598 19.6822 8.88088 19.9187 8.97744 20.0262C9.22122 20.2995 9.1641 20.2534 9.4276 20.4698C9.57822 20.593 9.92774 20.5834 9.95086 20.599C10.3 20.6515 11.0613 20.9709 10.5431 21.0282C10.3799 21.0214 10.5112 21.2352 10.6288 21.2902C10.9209 21.4294 11.2238 21.5328 11.5291 21.5971C11.5404 21.5997 11.5516 21.601 11.5625 21.601C11.6713 21.601 12.3553 21.6618 12.4764 21.6618C12.6311 21.6618 14.7309 21.672 15.7587 21.6774" stroke="#7A8695" stroke-miterlimit="10" stroke-linecap="round" stroke-linejoin="round"/>
<path d="M21.3466 13.2899C21.3354 13.1158 21.2398 12.991 21.1049 13.0019C21.1015 13.0026 21.0987 13.009 21.095 13.0093C21.0756 12.7968 21.0518 12.5856 21.0178 12.3786C21.0219 12.3779 21.0239 12.3786 21.0263 12.3776C21.1446 12.3318 21.215 12.1578 21.1831 11.9888C21.1028 11.5658 20.995 11.1478 20.8641 10.7488C20.8145 10.5891 20.5452 10.5226 20.5452 10.5226C20.5452 10.5226 20.4184 10.2298 20.3388 10.0496C20.3416 10.0467 20.345 10.048 20.3473 10.0454C20.4476 9.94561 20.4735 9.74849 20.4031 9.60481C20.227 9.24417 20.0274 8.90241 19.8101 8.58913C19.7245 8.46497 19.4004 8.47841 19.3977 8.48289C19.3688 8.43681 19.2668 8.31425 19.1478 8.18177C19.1505 8.17665 19.1546 8.17953 19.157 8.17441C19.2287 8.03201 19.2049 7.83393 19.106 7.73217C18.853 7.47617 18.5848 7.24993 18.3084 7.06049C18.1968 6.98529 17.712 7.05249 17.712 7.05249L17.5879 6.99361C17.5899 6.98881 17.5933 6.98785 17.594 6.98401C17.627 6.81569 17.5587 6.64001 17.441 6.59233C17.1442 6.47329 16.8382 6.39041 16.5291 6.34593C16.4407 6.32865 16.1201 6.32129 15.8763 6.32001C15.4027 6.47329 14.9461 6.68481 14.5143 6.94945C14.9315 6.99617 13.989 7.62017 14.0614 7.25441C13.7891 7.45441 13.5303 7.67681 13.2845 7.92161C13.6837 7.95745 12.9411 8.84385 12.8197 8.43329C12.5063 8.81409 12.2247 9.23585 11.981 9.69505C12.3434 9.59265 11.9058 10.7165 11.6501 10.4C11.4475 10.8886 11.2857 11.4125 11.1707 11.9693C11.508 11.8525 11.3486 12.8762 11.0446 12.729C10.9916 13.1491 10.9644 13.5859 10.9644 14.0374C10.9644 14.1315 10.965 14.225 10.9678 14.3174C11.2965 14.1872 11.456 15.1238 11.0188 15.1318C11.0766 15.6963 11.1803 16.2301 11.3224 16.7318C11.5223 16.5469 12.0394 17.3587 11.5753 17.4877C11.7494 17.936 11.9572 18.3539 12.1941 18.7408C12.3176 18.5197 12.9411 19.2435 12.5851 19.3162C12.8612 19.6848 13.1676 20.0186 13.497 20.3162C13.5514 20.1053 14.2015 20.567 13.9465 20.6896C14.5082 21.1162 15.1246 21.447 15.7733 21.6771C16.1018 21.6787 16.319 21.68 16.319 21.68C16.6498 21.6691 16.8096 21.6336 16.9473 21.5968C17.068 21.5638 17.3081 21.2122 17.3081 21.2122C17.3081 21.2122 17.7423 21.1923 17.832 21.1923C17.8585 21.1923 17.8857 21.1856 17.9123 21.1712C18.1985 21.0138 18.478 20.8192 18.7436 20.5917C18.8493 20.5024 18.883 20.3072 18.8201 20.1574C18.818 20.1539 18.8146 20.1539 18.8146 20.1507C18.9394 20.0333 18.9646 20.0042 19.0836 19.872C19.0849 19.8758 19.2869 19.8957 19.3491 19.8957C19.4001 19.8957 19.4528 19.8701 19.4939 19.8189C19.7282 19.5322 19.9461 19.215 20.1427 18.8746C20.2198 18.7395 20.2069 18.5408 20.1127 18.4291C20.1087 18.425 20.1049 18.4275 20.1015 18.4237C20.1913 18.2525 20.2569 18.1373 20.3371 17.9549C20.3399 17.9574 20.4374 17.9469 20.4745 17.9469C20.5517 17.9469 20.6251 17.889 20.6669 17.7862C20.8203 17.4051 20.9498 17.0013 21.0542 16.5869C21.096 16.4218 21.0348 16.2406 20.9196 16.1811C20.9182 16.1805 20.9162 16.1824 20.9141 16.1818C20.9587 15.9786 20.9944 15.7712 21.0263 15.5616C21.0297 15.5622 21.0297 15.5667 21.0324 15.5674C21.0457 15.5706 21.059 15.5715 21.0702 15.5715C21.1776 15.5715 21.2715 15.4624 21.2898 15.3085C21.3415 14.8762 21.3687 14.4333 21.3687 13.992C21.3684 13.7555 21.3612 13.5213 21.3466 13.2899ZM16.3489 18.8813C14.6391 18.8813 13.2526 16.696 13.2526 14.0016C13.2526 11.3062 14.6391 9.12161 16.3489 9.12161C18.0595 9.12161 19.4446 11.3066 19.4446 14.0016C19.4446 16.696 18.0595 18.8813 16.3489 18.8813Z" stroke="#7A8695" stroke-miterlimit="10" stroke-linecap="round" stroke-linejoin="round"/>
</g>
<defs>
<clipPath id="clip0_1_145">
<rect width="17" height="16" fill="white" transform="translate(6 6)"/>
</clipPath>
</defs>
</svg>
