<svg width="29" height="28" viewBox="0 0 29 28" fill="none" xmlns="http://www.w3.org/2000/svg">
<rect x="0.333252" width="28" height="28" rx="8" fill="#3C4652"/>
<path d="M13.08 20.52C13.9636 20.52 14.68 19.8037 14.68 18.92C14.68 18.0364 13.9636 17.32 13.08 17.32C12.1963 17.32 11.48 18.0364 11.48 18.92C11.48 19.8037 12.1963 20.52 13.08 20.52Z" stroke="#7A8695" stroke-miterlimit="10" stroke-linecap="round" stroke-linejoin="round"/>
<path d="M14.8237 18.6H20.12C20.12 18.6 20.12 17.1094 20.12 16.36C20.12 12.0128 16.1674 9 14.68 9H8.92C7.94144 9 7 9.94176 7 10.92V16.8278C7 17.8064 7.7936 18.6 8.77248 18.6H11.4042M11.16 13.16H8.6V11.24C8.6 10.9139 8.91392 10.6 9.24 10.6H11.16V13.16ZM12.76 13.16V10.6H14.36C15.64 10.6 16.92 11.88 17.56 13.16H12.76Z" stroke="#7A8695" stroke-miterlimit="10" stroke-linecap="round" stroke-linejoin="round"/>
<path d="M18.8398 18.6H22.3598" stroke="#7A8695" stroke-miterlimit="10" stroke-linecap="round" stroke-linejoin="round"/>
</svg>
