<svg width="78" height="81" viewBox="0 0 78 81" fill="none" xmlns="http://www.w3.org/2000/svg">
<path d="M13.5303 65.5C11.8734 65.5 10.5303 66.8431 10.5303 68.5C10.5303 70.1569 11.8734 71.5 13.5303 71.5V65.5ZM8.66692 67.6052C8.41601 68.4081 8.18231 69.3799 8.07018 70.3585C7.96715 71.2576 7.92085 72.5225 8.34114 73.7048C8.56633 74.3383 8.97285 75.0798 9.70251 75.6725C10.4645 76.2913 11.367 76.5748 12.2605 76.5989C13.846 76.6417 15.3741 75.8764 16.6945 74.9962L13.3663 70.0038C12.8821 70.3266 12.5529 70.4915 12.3584 70.5689C12.1535 70.6504 12.1981 70.5951 12.4221 70.6011C12.5443 70.6044 12.7162 70.6262 12.9154 70.696C13.1179 70.7669 13.3127 70.875 13.4852 71.015C13.8301 71.2952 13.959 71.595 13.9946 71.6952C14.0278 71.7887 14.0097 71.7866 14.0025 71.6371C13.9958 71.4984 14.0016 71.2993 14.0312 71.0415C14.0909 70.5201 14.2281 69.9252 14.3938 69.3948L8.66692 67.6052ZM16.6945 74.9962C17.9786 74.1401 19.1741 73.1485 19.8203 71.9355C20.1785 71.263 20.4477 70.3694 20.2872 69.358C20.1244 68.3319 19.5814 67.5743 19.0316 67.0764C18.0688 66.2044 16.8259 65.8801 16.0757 65.7319C15.202 65.5593 14.2927 65.5 13.5303 65.5V71.5C14.0179 71.5 14.521 71.5407 14.913 71.6181C15.1068 71.6564 15.2195 71.6933 15.2644 71.711C15.3257 71.7353 15.1951 71.6967 15.004 71.5236C14.7855 71.3257 14.4597 70.9181 14.3614 70.2983C14.2653 69.6931 14.4462 69.262 14.5248 69.1145C14.5928 68.9868 14.6051 69.0239 14.3966 69.2191C14.2001 69.4029 13.8748 69.6648 13.3663 70.0038L16.6945 74.9962Z" fill="#EB344B"/>
<path d="M64.5303 65.5C62.8734 65.5 61.5303 66.8431 61.5303 68.5C61.5303 70.1569 62.8734 71.5 64.5303 71.5V65.5ZM59.6669 67.6052C59.416 68.4081 59.1823 69.3799 59.0702 70.3585C58.9672 71.2576 58.9209 72.5225 59.3411 73.7048C59.5663 74.3383 59.9728 75.0798 60.7025 75.6725C61.4645 76.2913 62.367 76.5748 63.2605 76.5989C64.846 76.6417 66.3741 75.8764 67.6945 74.9962L64.3663 70.0038C63.8821 70.3266 63.5529 70.4915 63.3584 70.5689C63.1535 70.6504 63.1981 70.5951 63.4221 70.6011C63.5443 70.6044 63.7162 70.6262 63.9154 70.696C64.1179 70.7669 64.3127 70.875 64.4852 71.015C64.8301 71.2952 64.959 71.595 64.9946 71.6952C65.0278 71.7887 65.0097 71.7866 65.0025 71.6371C64.9958 71.4984 65.0016 71.2993 65.0312 71.0415C65.0909 70.5201 65.2281 69.9252 65.3938 69.3948L59.6669 67.6052ZM67.6945 74.9962C68.9786 74.1401 70.1741 73.1485 70.8203 71.9355C71.1785 71.263 71.4477 70.3694 71.2872 69.358C71.1244 68.3319 70.5814 67.5743 70.0316 67.0764C69.0688 66.2044 67.8259 65.8801 67.0757 65.7319C66.202 65.5593 65.2927 65.5 64.5303 65.5V71.5C65.0179 71.5 65.521 71.5407 65.913 71.6181C66.1068 71.6564 66.2195 71.6933 66.2644 71.711C66.3257 71.7353 66.1951 71.6967 66.004 71.5236C65.7855 71.3257 65.4597 70.9181 65.3614 70.2983C65.2653 69.6931 65.4462 69.262 65.5248 69.1145C65.5928 68.9868 65.6051 69.0239 65.3966 69.2191C65.2001 69.4029 64.8748 69.6648 64.3663 70.0038L67.6945 74.9962Z" fill="#EB344B"/>
<path d="M12.4121 59.6117C9.78899 41.0239 7.08263 4.25941 17.242 5.90349C27.4013 7.54758 18.2551 42.394 12.4121 59.6117Z" stroke="#EB344B" stroke-width="6" stroke-linejoin="round"/>
<path d="M63.4121 59.6117C60.789 41.0239 58.0826 4.25941 68.242 5.90349C78.4013 7.54758 69.2551 42.394 63.4121 59.6117Z" stroke="#EB344B" stroke-width="6" stroke-linejoin="round"/>
<path d="M16.7143 1L13.8571 14.8182L21 11.9091L11 33" stroke="#EB344B" stroke-width="6" stroke-linejoin="round"/>
<path d="M57 4L64.8571 14.8182L72 11.9091L62 33" stroke="#EB344B" stroke-width="6" stroke-linejoin="round"/>
<path d="M36 71.4997C35.6667 76.333 35.9 83.0997 39.5 71.4997C43.1 59.8997 37.6667 66.6664 34.5 71.4997" stroke="#EB344B" stroke-width="6" stroke-linejoin="round"/>
<path d="M38.1596 59C35.07 40.4543 31.5251 3.29068 42.0622 3.00166C52.5993 2.71264 43.8509 40.2135 38.1596 59Z" stroke="#EB344B" stroke-width="6" stroke-linejoin="round"/>
<path d="M46.1351 5L33 23.5938L51 16.3021L33 40" stroke="#EB344B" stroke-width="6" stroke-linejoin="round"/>
</svg>
