<svg width="239" height="138" viewBox="0 0 239 138" fill="none" xmlns="http://www.w3.org/2000/svg">
<path d="M78 77L97 47L148.5 3L193.5 38L230 112.5L107 122" stroke="#F9E154" stroke-width="6" stroke-linejoin="round"/>
<path d="M108 117L238 101.5M10.5 129L31.5 37" stroke="#F9E154" stroke-width="6" stroke-linejoin="round"/>
<path d="M53.5 41.5L92 13.5" stroke="#F9E154" stroke-width="6" stroke-linejoin="round"/>
<path d="M3 134.5L102 121.5L47.5 35.5L20.5 58.5L3 129" stroke="#F9E154" stroke-width="6" stroke-linejoin="round"/>
<path d="M60 48.5L93.5 14L121 23.5M17 79L36 99L46.5 79L60 84V66.5M71 41L83.5 48.5L93.5 41L111 36.5" stroke="#F9E154" stroke-width="6" stroke-linejoin="round"/>
<path d="M95.5 55.5L114 64.5L134 51L153.5 64.5L169.5 39L185 44L190 34" stroke="#F9E154" stroke-width="6" stroke-linejoin="round"/>
</svg>
