<svg width="64" height="64" viewBox="0 0 64 64" fill="none" xmlns="http://www.w3.org/2000/svg">
<circle cx="32" cy="32" r="31" fill="#CAD8E7" stroke="#97B2CF" stroke-width="2"/>
<path d="M19 16C19 15.4477 19.4477 15 20 15H44C45.1046 15 46 15.8954 46 17V47C46 48.1046 45.1046 49 44 49H20C19.4477 49 19 48.5523 19 48V16Z" fill="url(#paint0_linear_1_261)"/>
<path fill-rule="evenodd" clip-rule="evenodd" d="M33.6185 34.8394C33.6185 34.0354 34.75 33.9078 34.9186 34.7693C34.9466 34.9095 35.0115 35.046 35.1312 35.1262C35.933 35.6655 36.9193 36.2371 37.7943 35.8234C38.2557 35.6049 38.4383 35.2089 38.4383 34.8394C38.4383 33.7335 36.8741 33.7335 36.8837 34.8394C36.4853 34.9184 35.9508 34.6815 35.9508 34.2078V32.9434C39.9929 33.2592 41.013 28.5192 38.9919 26.1488L36.7087 28.5968C36.4732 28.8495 36.3682 29.1931 36.2874 29.5284C36.2053 29.8733 35.9979 30.2573 35.4843 30.2573C34.7067 30.2573 34.5514 29.5461 34.5514 28.6771C34.5514 27.0185 35.8731 27.1758 36.4172 27.4132C36.8054 26.7021 36.2066 26.2625 35.7064 26.0617C34.3955 25.6751 33.1591 27.1758 33.0032 28.5185C32.8479 27.1758 31.6045 25.6751 30.2936 26.0617C29.7934 26.2625 29.1946 26.7021 29.5827 27.4132C30.1275 27.1758 31.4485 27.0185 31.4485 28.6764C31.4485 29.5461 31.2933 30.2573 30.5156 30.2573C30.0021 30.2573 29.7947 29.8733 29.7119 29.5284C29.6317 29.1937 29.5274 28.8501 29.2913 28.5968L27.008 26.1488C24.987 28.5192 26.0071 33.2592 30.0498 32.9434V34.2078C30.0498 34.6815 29.5153 34.9184 29.1163 34.8394C29.1258 33.7335 27.5617 33.7335 27.5617 34.8394C27.5617 35.2089 27.7443 35.6049 28.2057 35.8234C29.08 36.2371 30.067 35.6655 30.8688 35.1262C30.9885 35.046 31.0534 34.9095 31.0814 34.7693C31.25 33.9078 32.3814 34.0354 32.3814 34.8394C32.3814 35.1552 32.2262 35.3927 31.8374 35.7085L30.802 36.4102C30.4851 36.6249 30.4278 37.0727 30.7352 37.3007C31.4135 37.8054 32.2033 37.9999 32.9962 37.9999C33.7903 37.9999 34.5839 37.8047 35.2648 37.3001C35.5715 37.0727 35.5149 36.6243 35.198 36.4102L34.1626 35.7091C33.7744 35.3927 33.6185 35.1552 33.6185 34.8394ZM32.1199 30.4209C32.0158 30.4209 31.9159 30.4619 31.8423 30.535C31.7686 30.6081 31.7273 30.7072 31.7273 30.8105V32.3605C31.7273 32.7956 32.0824 33.148 32.5208 33.148C32.6004 33.148 32.6754 33.1834 32.7257 33.2447L32.8613 33.4095C32.878 33.43 32.8992 33.4465 32.9232 33.4578C32.9472 33.4691 32.9734 33.475 33 33.475C33.0266 33.475 33.0528 33.4691 33.0768 33.4578C33.1008 33.4465 33.1219 33.43 33.1387 33.4095L33.2743 33.2453C33.299 33.215 33.3302 33.1906 33.3657 33.1738C33.4011 33.1569 33.4399 33.1481 33.4792 33.148C33.9176 33.148 34.2727 32.7956 34.2727 32.3605V30.8105C34.2727 30.7072 34.2313 30.6081 34.1577 30.535C34.0841 30.4619 33.9842 30.4209 33.8801 30.4209H32.1199Z" fill="url(#paint1_linear_1_261)"/>
<defs>
<linearGradient id="paint0_linear_1_261" x1="43.6522" y1="15" x2="23.1478" y2="50.1952" gradientUnits="userSpaceOnUse">
<stop stop-color="#681C20"/>
<stop offset="1" stop-color="#852B47"/>
</linearGradient>
<linearGradient id="paint1_linear_1_261" x1="33" y1="25.9999" x2="33" y2="37.9999" gradientUnits="userSpaceOnUse">
<stop stop-color="#ECC88D"/>
<stop offset="1" stop-color="#FBE5C5"/>
</linearGradient>
</defs>
</svg>
