<svg width="146" height="140" viewBox="0 0 146 140" fill="none" xmlns="http://www.w3.org/2000/svg">
<path fill-rule="evenodd" clip-rule="evenodd" d="M105.972 0.54686C107.415 0.288893 108.834 1.11183 109.326 2.49282L145.326 103.493C145.603 104.27 145.548 105.127 145.173 105.862C144.799 106.597 144.138 107.145 143.347 107.378L32.8465 139.878C32.0637 140.108 31.2209 140.01 30.5123 139.605C29.8038 139.201 29.2906 138.525 29.0911 137.734L0.0910792 22.7336C-0.112404 21.9267 0.0284252 21.0715 0.479907 20.3725C0.931389 19.6734 1.65295 19.1933 2.47215 19.0469L105.972 0.54686ZM6.69585 24.387L34.1462 133.242L138.609 102.518L104.527 6.90025L6.69585 24.387ZM97.8375 10.0741C99.3029 9.74233 100.788 10.5457 101.312 11.9539L125.312 76.4538C125.614 77.2659 125.55 78.1689 125.137 78.9305C124.724 79.6921 124.002 80.2379 123.156 80.4274L36.1561 99.9274C34.5673 100.284 32.9845 99.3073 32.5896 97.7277L16.0896 31.7277C15.8938 30.9445 16.0219 30.1155 16.4449 29.428C16.8679 28.7404 17.5502 28.2524 18.3375 28.0741L97.8375 10.0741ZM22.6545 33.2486L37.7004 93.4324L118.49 75.3245L96.6034 16.5054L22.6545 33.2486Z" fill="#EB344B"/>
<path fill-rule="evenodd" clip-rule="evenodd" d="M76.2751 15.7845C77.7032 16.455 78.3679 18.117 77.7961 19.5874L61.3475 61.8838L89.4561 16.91C90.303 15.5549 92.0636 15.1015 93.4597 15.8791C94.8558 16.6566 95.3974 18.392 94.6913 19.8256L78.2154 53.2768L83.5545 45.7624C84.3107 44.6982 85.6683 44.2451 86.912 44.642C88.1558 45.0389 89.0001 46.1945 89.0001 47.5V63.2003L100.166 31.0167C100.669 29.5675 102.184 28.731 103.678 29.0776C105.172 29.4241 106.164 30.8421 105.978 32.3646L102.143 63.6787L106.306 55.1804C106.92 53.9268 108.317 53.2623 109.677 53.5775C111.037 53.8926 112 55.1041 112 56.5V72.638L113.684 70.5929L118.316 74.4071L111.316 82.9071C110.511 83.8846 109.179 84.2514 107.987 83.8238C106.795 83.3962 106 82.2663 106 81V69.4453L99.6942 82.3196C99.05 83.635 97.5501 84.2928 96.1461 83.8759C94.742 83.459 93.8443 82.0892 94.0223 80.6354L96.597 59.6085L88.8343 81.9833C88.3543 83.3669 86.9455 84.2017 85.5015 83.9583C84.0574 83.7149 83.0001 82.4645 83.0001 81V56.9017L61.4456 87.2376C60.5398 88.5125 58.8067 88.8776 57.4635 88.0767C56.1204 87.2757 55.6178 85.5774 56.3088 84.1745L63.0669 70.4535L49.5441 92.09C48.7236 93.4027 47.0392 93.8756 45.6555 93.1818C44.2717 92.4881 43.643 90.8554 44.204 89.4127L56.2628 58.4045L37.6225 91.957C36.8646 93.3213 35.1871 93.8765 33.7648 93.2339C32.3426 92.5913 31.6506 90.9655 32.1734 89.495L43.4563 57.7619L34.6337 73.9366C33.9122 75.2593 32.3215 75.8417 30.9165 75.2975C29.5115 74.7533 28.7281 73.2513 29.0859 71.7877L36.3686 41.9944L26.9444 55.2393C26.121 56.3965 24.5989 56.8178 23.2977 56.2485C21.9965 55.6793 21.2727 54.2756 21.5637 52.8854L26.0637 31.3854L31.9364 32.6146L30.3768 40.0662L40.5557 25.7608C41.39 24.5882 42.9395 24.1732 44.2482 24.772C45.5568 25.3707 46.256 26.8144 45.9143 28.2124L40.3715 50.8875L56.3664 21.5635C57.1159 20.1894 58.7958 19.6224 60.2247 20.2613C61.6535 20.9003 62.3511 22.5303 61.8267 24.0051L49.9456 57.4207L72.3776 17.0431C73.1437 15.664 74.8471 15.114 76.2751 15.7845Z" fill="#EB344B"/>
<path fill-rule="evenodd" clip-rule="evenodd" d="M133.575 103.167L111.575 6.66691L117.425 5.33325L139.425 101.833L133.575 103.167Z" fill="#EB344B"/>
</svg>
