<svg width="24" height="25" viewBox="0 0 24 25" fill="none" xmlns="http://www.w3.org/2000/svg">
<g id="Frame">
<path id="Vector" d="M21 4.1V20.9C21 21.0591 20.9368 21.2117 20.8243 21.3243C20.7117 21.4368 20.5591 21.5 20.4 21.5H3.6C3.44087 21.5 3.28826 21.4368 3.17574 21.3243C3.06321 21.2117 3 21.0591 3 20.9V4.1C3 3.94087 3.06321 3.78826 3.17574 3.67574C3.28826 3.56321 3.44087 3.5 3.6 3.5H20.4C20.5591 3.5 20.7117 3.56321 20.8243 3.67574C20.9368 3.78826 21 3.94087 21 4.1V4.1Z" stroke="#D5DFE9" stroke-width="1.5" stroke-linecap="round" stroke-linejoin="round"/>
<path id="Vector_2" d="M9.898 9.01307C9.80681 8.96089 9.70352 8.93357 9.59846 8.93384C9.4934 8.93411 9.39025 8.96196 9.29933 9.01461C9.20841 9.06726 9.13291 9.14285 9.08038 9.23384C9.02785 9.32483 9.00013 9.42801 9 9.53307V15.4661C8.99996 15.5712 9.02755 15.6745 9.08001 15.7657C9.13247 15.8568 9.20795 15.9325 9.2989 15.9853C9.38985 16.0381 9.49307 16.066 9.59821 16.0663C9.70336 16.0666 9.80674 16.0393 9.898 15.9871L15.088 13.0211C15.1799 12.9686 15.2562 12.8928 15.3093 12.8013C15.3624 12.7098 15.3904 12.6059 15.3904 12.5001C15.3904 12.3943 15.3624 12.2904 15.3093 12.1989C15.2562 12.1074 15.1799 12.0315 15.088 11.9791L9.898 9.01307V9.01307Z" stroke="#D5DFE9" stroke-width="1.5" stroke-linecap="round" stroke-linejoin="round"/>
</g>
</svg>
