<svg width="220" height="206" viewBox="0 0 220 206" fill="none" xmlns="http://www.w3.org/2000/svg">
<path d="M89.5 133C73 133 49 127.5 49 91C49 63.5 74.5 48 89.5 48C104.5 48 134 56.5 134 91C134 125.5 106 133 89.5 133Z" stroke="#F9E154" stroke-width="3"/>
<path d="M82 50L50 77.5L100.5 46.5L41.5 96.5L111.5 48.5L50 99L119.5 52.5L50 115L119.5 60L53.5 124.5L135.5 56L59 132L131 71L70 132L133 81.5L83.5 130L133 92.5L92 130L140 96.5L100.5 137.5" stroke="#F9E154" stroke-width="3"/>
<path d="M99.5 50L131.5 77.5L81 46.5L140 96.5L70 48.5L131.5 99L62 52.5L131.5 115L62 60L128 124.5L46 56L122.5 132L50.5 71L111.5 132L48.5 81.5L98 130L48.5 92.5L89.5 130L41.5 96.5L81 137.5" stroke="#F9E154" stroke-width="3"/>
<path d="M61.5 143L23 202.5" stroke="#F9E154" stroke-width="3"/>
<path d="M150 106.831L218.781 123.909" stroke="#F9E154" stroke-width="3"/>
<path d="M38.7633 117.058L0.999853 125" stroke="#F9E154" stroke-width="3"/>
<path d="M39.8082 71.7524L8.18152 49.6412" stroke="#F9E154" stroke-width="3"/>
<path d="M71.9243 37.1456L58.4088 1.0003" stroke="#F9E154" stroke-width="3"/>
<path d="M113.489 37.3799L138.524 8.01326" stroke="#F9E154" stroke-width="3"/>
<path d="M147 70.4103L184.698 62.1647" stroke="#F9E154" stroke-width="3"/>
<path d="M111.732 143.197L131.158 176.541" stroke="#F9E154" stroke-width="3"/>
<path d="M57.8533 140.935L26.647 204.564" stroke="#F9E154" stroke-width="3"/>
<path d="M151.249 102.83L217.533 127.91" stroke="#F9E154" stroke-width="3"/>
<path d="M37.3019 113.13L4.99985 129" stroke="#F9E154" stroke-width="3"/>
<path d="M41.6726 68.0004L8.0001 55.2956" stroke="#F9E154" stroke-width="3"/>
<path d="M75.5877 35.1116L55.0538 5.55468" stroke="#F9E154" stroke-width="3"/>
<path d="M117.046 39.5946L132.914 7.29176" stroke="#F9E154" stroke-width="3"/>
<path d="M148.493 74.3259L180.666 58.1974" stroke="#F9E154" stroke-width="3"/>
<path d="M115.626 141.648L125.508 176.254" stroke="#F9E154" stroke-width="3"/>
</svg>
