<svg width="32" height="32" viewBox="0 0 32 32" fill="none" xmlns="http://www.w3.org/2000/svg">
<path d="M30.511 15.8658C30.511 23.8157 24.1028 30.2442 16.2176 30.2442C13.9097 30.2442 11.7283 29.6935 9.79706 28.7151L10.0808 29.6896L9.02319 29.991C11.1806 31.1037 13.6262 31.7316 16.2176 31.7316C24.934 31.7316 32 24.6283 32 15.8658C32 7.10337 24.934 0 16.2176 0C7.50127 0 0.435261 7.10337 0.435261 15.8658C0.435261 18.3566 1.00619 20.7133 2.02368 22.8109L2.28891 21.8638L3.38684 22.2098C2.45047 20.2971 1.92426 18.1439 1.92426 15.8658C1.92426 7.91595 8.3325 1.48742 16.2176 1.48742C24.1028 1.48742 30.511 7.91595 30.511 15.8658Z" fill="#5D5F6C"/>
<path fill-rule="evenodd" clip-rule="evenodd" d="M0.0829972 29.7403L2.28891 21.8638L3.38684 22.2098L1.50302 30.1878C1.44337 30.3767 1.61862 30.5557 1.80901 30.5004L9.79706 28.7151L10.0808 29.6896L2.22492 31.9286C0.892176 32.3159 -0.334567 31.0626 0.0829972 29.7403Z" fill="#5D5F6C"/>
<path fill-rule="evenodd" clip-rule="evenodd" d="M7.27566 9.7774C7.06485 8.37415 8.18359 7.25 9.50963 7.25H12.5402C12.8533 7.25 13.1334 7.44447 13.2428 7.73779L14.4184 10.888C14.4659 11.0153 14.4779 11.1531 14.4532 11.2867L13.8713 14.431C14.5759 16.0767 15.7289 17.1943 17.6492 18.2032L20.7206 17.6036C20.8587 17.5766 21.0016 17.589 21.133 17.6395L24.2694 18.8434C24.5593 18.9547 24.7507 19.2331 24.7507 19.5436V22.461C24.7507 23.8589 23.5231 25.0172 22.0645 24.698L22.064 24.6979C19.5895 24.1548 14.9842 22.7727 11.7534 19.5176C8.6559 16.3968 7.62258 12.0932 7.27573 9.77787M9.50963 8.75C9.01313 8.75 8.69709 9.14293 8.75904 9.55473L8.75911 9.5552C9.09098 11.7708 10.0614 15.6836 12.818 18.4609C15.7354 21.4003 19.9861 22.7061 22.3851 23.2327C22.8091 23.3254 23.2507 23.0054 23.2507 22.461V20.0591L20.7966 19.117L17.6809 19.7254C17.5173 19.7573 17.3476 19.7338 17.1988 19.6586C14.8378 18.4649 13.2902 17.04 12.3965 14.7889C12.3444 14.6577 12.3304 14.5145 12.3561 14.3757L12.9405 11.2179L12.0195 8.75H9.50963Z" fill="#5D5F6C"/>
</svg>
